<svg width="120" height="23" viewBox="0 0 120 23" fill="none" xmlns="http://www.w3.org/2000/svg">
<path d="M0 5C0 2.23858 2.23858 0 5 0H115C117.761 0 120 2.23858 120 5V18C120 20.7614 117.761 23 115 23H5C2.23858 23 0 20.7614 0 18V5Z" fill="#FC8181"/>
<path d="M30.0227 16.1442C29.5355 16.1442 29.1013 16.0597 28.7202 15.8906C28.339 15.7183 28.0374 15.4647 27.8153 15.13C27.5966 14.7919 27.4872 14.371 27.4872 13.8672C27.4872 13.4429 27.5651 13.0866 27.7209 12.7983C27.8767 12.5099 28.0888 12.2779 28.3572 12.1023C28.6257 11.9266 28.9306 11.794 29.272 11.7045C29.6167 11.6151 29.978 11.5521 30.3558 11.5156C30.8 11.4692 31.1579 11.4261 31.4297 11.3864C31.7015 11.3433 31.8987 11.2803 32.0213 11.1974C32.1439 11.1146 32.2053 10.992 32.2053 10.8295V10.7997C32.2053 10.4848 32.1058 10.2412 31.907 10.0689C31.7114 9.89654 31.433 9.81037 31.0717 9.81037C30.6906 9.81037 30.3873 9.89489 30.1619 10.0639C29.9366 10.2296 29.7874 10.4384 29.7145 10.6903L27.7557 10.5312C27.8551 10.0672 28.0507 9.66619 28.3423 9.32812C28.634 8.98674 29.0102 8.7249 29.4709 8.54261C29.9349 8.35701 30.4718 8.2642 31.0817 8.2642C31.5059 8.2642 31.9119 8.31392 32.2997 8.41335C32.6908 8.51278 33.0372 8.6669 33.3388 8.87571C33.6437 9.08452 33.884 9.35298 34.0597 9.68111C34.2353 10.0059 34.3232 10.3954 34.3232 10.8494V16H32.3146V14.9411H32.255C32.1323 15.1797 31.9683 15.3902 31.7628 15.5724C31.5573 15.7514 31.3104 15.8923 31.022 15.995C30.7337 16.0945 30.4006 16.1442 30.0227 16.1442ZM30.6293 14.6825C30.9408 14.6825 31.2159 14.6212 31.4545 14.4986C31.6932 14.3726 31.8804 14.2036 32.0163 13.9915C32.1522 13.7794 32.2202 13.5391 32.2202 13.2706V12.4602C32.1539 12.5033 32.0627 12.5431 31.9467 12.5795C31.834 12.6127 31.7064 12.6442 31.5639 12.674C31.4214 12.7005 31.2789 12.7254 31.1364 12.7486C30.9938 12.7685 30.8646 12.7867 30.7486 12.8033C30.5 12.8397 30.2829 12.8977 30.0973 12.9773C29.9117 13.0568 29.7675 13.1645 29.6648 13.3004C29.562 13.433 29.5107 13.5987 29.5107 13.7976C29.5107 14.0859 29.6151 14.3063 29.8239 14.4588C30.036 14.608 30.3045 14.6825 30.6293 14.6825ZM42.32 10.5412L40.381 10.6605C40.3479 10.4948 40.2766 10.3456 40.1673 10.2131C40.0579 10.0772 39.9137 9.96946 39.7347 9.88991C39.5591 9.80705 39.3486 9.76562 39.1033 9.76562C38.7752 9.76562 38.4985 9.83523 38.2731 9.97443C38.0477 10.1103 37.935 10.2926 37.935 10.5213C37.935 10.7036 38.0079 10.8577 38.1538 10.9837C38.2996 11.1096 38.5498 11.2107 38.9045 11.2869L40.2866 11.5653C41.029 11.7178 41.5825 11.9631 41.9471 12.3011C42.3117 12.6392 42.494 13.0833 42.494 13.6335C42.494 14.134 42.3465 14.5732 42.0515 14.951C41.7598 15.3288 41.3588 15.6238 40.8484 15.8359C40.3413 16.0447 39.7563 16.1491 39.0934 16.1491C38.0825 16.1491 37.2771 15.9387 36.6772 15.5178C36.0806 15.0935 35.7309 14.5168 35.6282 13.7876L37.7113 13.6783C37.7743 13.9865 37.9267 14.2218 38.1687 14.3842C38.4106 14.5433 38.7205 14.6229 39.0984 14.6229C39.4696 14.6229 39.7679 14.5516 39.9933 14.4091C40.2219 14.2633 40.338 14.076 40.3413 13.8473C40.338 13.6551 40.2567 13.4976 40.0977 13.375C39.9386 13.2491 39.6933 13.1529 39.3619 13.0866L38.0394 12.8232C37.2937 12.674 36.7385 12.4155 36.3739 12.0476C36.0127 11.6797 35.832 11.2107 35.832 10.6406C35.832 10.1501 35.9646 9.72751 36.2298 9.37287C36.4982 9.01823 36.8744 8.74479 37.3583 8.55256C37.8455 8.36032 38.4156 8.2642 39.0685 8.2642C40.033 8.2642 40.792 8.46804 41.3455 8.87571C41.9023 9.28338 42.2272 9.83854 42.32 10.5412ZM50.1813 10.5412L48.2424 10.6605C48.2092 10.4948 48.138 10.3456 48.0286 10.2131C47.9192 10.0772 47.775 9.96946 47.5961 9.88991C47.4204 9.80705 47.2099 9.76562 46.9647 9.76562C46.6365 9.76562 46.3598 9.83523 46.1344 9.97443C45.909 10.1103 45.7963 10.2926 45.7963 10.5213C45.7963 10.7036 45.8693 10.8577 46.0151 10.9837C46.1609 11.1096 46.4112 11.2107 46.7658 11.2869L48.1479 11.5653C48.8903 11.7178 49.4438 11.9631 49.8084 12.3011C50.173 12.6392 50.3553 13.0833 50.3553 13.6335C50.3553 14.134 50.2078 14.5732 49.9128 14.951C49.6212 15.3288 49.2201 15.6238 48.7097 15.8359C48.2026 16.0447 47.6176 16.1491 46.9547 16.1491C45.9438 16.1491 45.1384 15.9387 44.5385 15.5178C43.9419 15.0935 43.5923 14.5168 43.4895 13.7876L45.5726 13.6783C45.6356 13.9865 45.7881 14.2218 46.03 14.3842C46.272 14.5433 46.5819 14.6229 46.9597 14.6229C47.3309 14.6229 47.6292 14.5516 47.8546 14.4091C48.0833 14.2633 48.1993 14.076 48.2026 13.8473C48.1993 13.6551 48.1181 13.4976 47.959 13.375C47.7999 13.2491 47.5546 13.1529 47.2232 13.0866L45.9007 12.8232C45.155 12.674 44.5998 12.4155 44.2353 12.0476C43.874 11.6797 43.6934 11.2107 43.6934 10.6406C43.6934 10.1501 43.8259 9.72751 44.0911 9.37287C44.3596 9.01823 44.7357 8.74479 45.2196 8.55256C45.7069 8.36032 46.2769 8.2642 46.9299 8.2642C47.8944 8.2642 48.6534 8.46804 49.2069 8.87571C49.7637 9.28338 50.0885 9.83854 50.1813 10.5412ZM51.6889 16V8.36364H53.8068V16H51.6889ZM52.7528 7.37926C52.438 7.37926 52.1679 7.27486 51.9425 7.06605C51.7204 6.85393 51.6094 6.60038 51.6094 6.3054C51.6094 6.01373 51.7204 5.76349 51.9425 5.55469C52.1679 5.34257 52.438 5.23651 52.7528 5.23651C53.0677 5.23651 53.3362 5.34257 53.5582 5.55469C53.7836 5.76349 53.8963 6.01373 53.8963 6.3054C53.8963 6.60038 53.7836 6.85393 53.5582 7.06605C53.3362 7.27486 53.0677 7.37926 52.7528 7.37926ZM58.9437 19.0227C58.2576 19.0227 57.6693 18.9283 57.1788 18.7393C56.6916 18.5537 56.3038 18.3002 56.0154 17.9787C55.7271 17.6572 55.5398 17.2959 55.4537 16.8949L57.4125 16.6314C57.4721 16.7839 57.5666 16.9264 57.6958 17.0589C57.8251 17.1915 57.9958 17.2976 58.2079 17.3771C58.4234 17.46 58.6852 17.5014 58.9934 17.5014C59.4541 17.5014 59.8336 17.3887 60.1319 17.1634C60.4335 16.9413 60.5843 16.5684 60.5843 16.0447V14.6477H60.4949C60.402 14.8598 60.2628 15.0604 60.0772 15.2493C59.8916 15.4382 59.653 15.5923 59.3613 15.7116C59.0697 15.831 58.7217 15.8906 58.3173 15.8906C57.7439 15.8906 57.2219 15.758 56.7512 15.4929C56.2839 15.2244 55.911 14.8151 55.6326 14.2649C55.3575 13.7114 55.22 13.0121 55.22 12.1669C55.22 11.3018 55.3609 10.5793 55.6426 9.99929C55.9243 9.41927 56.2988 8.98509 56.7662 8.69673C57.2368 8.40838 57.7522 8.2642 58.3123 8.2642C58.7399 8.2642 59.0978 8.33712 59.3862 8.48295C59.6745 8.62547 59.9065 8.80445 60.0822 9.01989C60.2612 9.23201 60.3987 9.44081 60.4949 9.64631H60.5744V8.36364H62.6774V16.0746C62.6774 16.7242 62.5183 17.2678 62.2001 17.7053C61.8819 18.1428 61.4411 18.4709 60.8777 18.6896C60.3175 18.9117 59.6729 19.0227 58.9437 19.0227ZM58.9885 14.2997C59.3298 14.2997 59.6182 14.2152 59.8535 14.0462C60.0922 13.8738 60.2744 13.6286 60.4004 13.3104C60.5297 12.9889 60.5943 12.6044 60.5943 12.157C60.5943 11.7095 60.5313 11.3217 60.4054 10.9936C60.2794 10.6622 60.0971 10.4053 59.8585 10.223C59.6199 10.0407 59.3298 9.94957 58.9885 9.94957C58.6404 9.94957 58.3471 10.044 58.1085 10.233C57.8699 10.4186 57.6892 10.6771 57.5666 11.0085C57.444 11.34 57.3826 11.7228 57.3826 12.157C57.3826 12.5978 57.444 12.9789 57.5666 13.3004C57.6925 13.6186 57.8732 13.8655 58.1085 14.0412C58.3471 14.2135 58.6404 14.2997 58.9885 14.2997ZM66.4806 11.5852V16H64.3627V8.36364H66.3812V9.71094H66.4707C66.6397 9.26681 66.9231 8.91548 67.3208 8.65696C67.7186 8.39512 68.2008 8.2642 68.7676 8.2642C69.2979 8.2642 69.7602 8.38021 70.1547 8.61222C70.5491 8.84422 70.8556 9.17566 71.0744 9.60653C71.2931 10.0341 71.4025 10.5445 71.4025 11.1378V16H69.2846V11.5156C69.2879 11.0483 69.1686 10.6837 68.9267 10.4219C68.6847 10.1567 68.3516 10.0241 67.9274 10.0241C67.6423 10.0241 67.3904 10.0855 67.1717 10.2081C66.9563 10.3307 66.7872 10.5097 66.6646 10.745C66.5453 10.977 66.484 11.2571 66.4806 11.5852ZM76.5518 16.1491C75.7663 16.1491 75.0902 15.9901 74.5234 15.6719C73.96 15.3504 73.5258 14.8963 73.2209 14.3097C72.916 13.7197 72.7635 13.022 72.7635 12.2166C72.7635 11.4311 72.916 10.7417 73.2209 10.1484C73.5258 9.55516 73.955 9.0928 74.5085 8.76136C75.0653 8.42992 75.7183 8.2642 76.4673 8.2642C76.9711 8.2642 77.4401 8.34541 77.8743 8.50781C78.3118 8.6669 78.6929 8.9072 79.0178 9.22869C79.3459 9.55019 79.6011 9.95455 79.7834 10.4418C79.9657 10.9257 80.0568 11.4924 80.0568 12.142V12.7237H73.6087V11.4112H78.0632C78.0632 11.1063 77.9969 10.8362 77.8643 10.6009C77.7318 10.3655 77.5478 10.1816 77.3125 10.049C77.0805 9.91312 76.8104 9.84517 76.5021 9.84517C76.1806 9.84517 75.8956 9.91974 75.647 10.0689C75.4018 10.2147 75.2095 10.4119 75.0703 10.6605C74.9311 10.9058 74.8598 11.1792 74.8565 11.4808V12.7287C74.8565 13.1065 74.9261 13.433 75.0653 13.7081C75.2079 13.9832 75.4084 14.1953 75.6669 14.3445C75.9254 14.4936 76.232 14.5682 76.5866 14.5682C76.822 14.5682 77.0374 14.535 77.233 14.4688C77.4285 14.4025 77.5959 14.303 77.7351 14.1705C77.8743 14.0379 77.9804 13.8755 78.0533 13.6832L80.0121 13.8125C79.9126 14.2831 79.7088 14.6941 79.4006 15.0455C79.0956 15.3935 78.7012 15.6652 78.2173 15.8608C77.7367 16.053 77.1816 16.1491 76.5518 16.1491ZM84.2528 16.1243C83.6728 16.1243 83.1475 15.9751 82.6768 15.6768C82.2095 15.3752 81.8383 14.9328 81.5632 14.3494C81.2914 13.7628 81.1555 13.0436 81.1555 12.1918C81.1555 11.3168 81.2964 10.5893 81.5781 10.0092C81.8598 9.4259 82.2344 8.99006 82.7017 8.7017C83.1723 8.41004 83.6877 8.2642 84.2479 8.2642C84.6754 8.2642 85.0317 8.33712 85.3168 8.48295C85.6051 8.62547 85.8371 8.80445 86.0128 9.01989C86.1918 9.23201 86.3277 9.44081 86.4205 9.64631H86.4851V5.81818H88.598V16H86.5099V14.777H86.4205C86.321 14.9891 86.1802 15.1996 85.9979 15.4084C85.8189 15.6139 85.5852 15.7846 85.2969 15.9205C85.0118 16.0563 84.6638 16.1243 84.2528 16.1243ZM84.924 14.4389C85.2654 14.4389 85.5537 14.3461 85.7891 14.1605C86.0277 13.9716 86.21 13.7081 86.3359 13.37C86.4652 13.032 86.5298 12.6359 86.5298 12.1818C86.5298 11.7277 86.4669 11.3333 86.3409 10.9986C86.215 10.6638 86.0327 10.4053 85.794 10.223C85.5554 10.0407 85.2654 9.94957 84.924 9.94957C84.576 9.94957 84.2827 10.044 84.044 10.233C83.8054 10.4219 83.6248 10.6837 83.5021 11.0185C83.3795 11.3532 83.3182 11.741 83.3182 12.1818C83.3182 12.6259 83.3795 13.0187 83.5021 13.3601C83.6281 13.6982 83.8087 13.9633 84.044 14.1555C84.2827 14.3445 84.576 14.4389 84.924 14.4389Z" fill="white"/>
</svg>
