<svg width="128" height="31" viewBox="0 0 128 31" fill="none" xmlns="http://www.w3.org/2000/svg">
<g filter="url(#filter0_d_176_44)">
<path d="M4 5C4 2.23858 6.23858 0 9 0H119C121.761 0 124 2.23858 124 5V18C124 20.7614 121.761 23 119 23H9C6.23858 23 4 20.7614 4 18V5Z" fill="#FDAC34"/>
<path d="M46.2955 17.1491C45.5133 17.1491 44.8404 16.9834 44.277 16.652C43.7169 16.3172 43.286 15.8532 42.9844 15.2599C42.6861 14.6667 42.5369 13.9839 42.5369 13.2116C42.5369 12.4295 42.6877 11.7434 42.9893 11.1534C43.2943 10.5601 43.7268 10.0978 44.2869 9.76633C44.8471 9.43158 45.5133 9.2642 46.2855 9.2642C46.9517 9.2642 47.535 9.38518 48.0355 9.62713C48.536 9.86908 48.9321 10.2088 49.2237 10.6463C49.5154 11.0838 49.6761 11.5975 49.706 12.1875H47.7074C47.651 11.8063 47.5019 11.4998 47.2599 11.2678C47.0213 11.0324 46.7081 10.9148 46.3203 10.9148C45.9922 10.9148 45.7055 11.0043 45.4602 11.1832C45.2183 11.3589 45.0294 11.6158 44.8935 11.9538C44.7576 12.2919 44.6896 12.7012 44.6896 13.1818C44.6896 13.669 44.7559 14.0833 44.8885 14.4247C45.0244 14.7661 45.215 15.0263 45.4602 15.2053C45.7055 15.3842 45.9922 15.4737 46.3203 15.4737C46.5623 15.4737 46.7794 15.424 46.9716 15.3246C47.1671 15.2251 47.3279 15.081 47.4538 14.892C47.5831 14.6998 47.6676 14.4695 47.7074 14.201H49.706C49.6728 14.7843 49.5137 15.2981 49.2287 15.7422C48.947 16.183 48.5575 16.5277 48.0604 16.7763C47.5632 17.0249 46.9749 17.1491 46.2955 17.1491ZM53.1799 6.81818V17H51.062V6.81818H53.1799ZM58.3267 17.1491C57.5545 17.1491 56.8866 16.9851 56.3232 16.657C55.763 16.3255 55.3305 15.8648 55.0256 15.2749C54.7206 14.6816 54.5682 13.9938 54.5682 13.2116C54.5682 12.4228 54.7206 11.7334 55.0256 11.1435C55.3305 10.5502 55.763 10.0895 56.3232 9.76136C56.8866 9.42992 57.5545 9.2642 58.3267 9.2642C59.099 9.2642 59.7652 9.42992 60.3253 9.76136C60.8887 10.0895 61.3229 10.5502 61.6278 11.1435C61.9328 11.7334 62.0852 12.4228 62.0852 13.2116C62.0852 13.9938 61.9328 14.6816 61.6278 15.2749C61.3229 15.8648 60.8887 16.3255 60.3253 16.657C59.7652 16.9851 59.099 17.1491 58.3267 17.1491ZM58.3366 15.5085C58.688 15.5085 58.9813 15.4091 59.2166 15.2102C59.4519 15.008 59.6293 14.733 59.7486 14.3849C59.8712 14.0369 59.9325 13.6409 59.9325 13.1967C59.9325 12.7526 59.8712 12.3565 59.7486 12.0085C59.6293 11.6605 59.4519 11.3854 59.2166 11.1832C58.9813 10.9811 58.688 10.88 58.3366 10.88C57.982 10.88 57.6837 10.9811 57.4418 11.1832C57.2031 11.3854 57.0225 11.6605 56.8999 12.0085C56.7805 12.3565 56.7209 12.7526 56.7209 13.1967C56.7209 13.6409 56.7805 14.0369 56.8999 14.3849C57.0225 14.733 57.2031 15.008 57.4418 15.2102C57.6837 15.4091 57.982 15.5085 58.3366 15.5085ZM69.8161 11.5412L67.8771 11.6605C67.844 11.4948 67.7727 11.3456 67.6634 11.2131C67.554 11.0772 67.4098 10.9695 67.2308 10.8899C67.0552 10.8071 66.8447 10.7656 66.5994 10.7656C66.2713 10.7656 65.9946 10.8352 65.7692 10.9744C65.5438 11.1103 65.4311 11.2926 65.4311 11.5213C65.4311 11.7036 65.504 11.8577 65.6499 11.9837C65.7957 12.1096 66.0459 12.2107 66.4006 12.2869L67.7827 12.5653C68.5251 12.7178 69.0786 12.9631 69.4432 13.3011C69.8078 13.6392 69.9901 14.0833 69.9901 14.6335C69.9901 15.134 69.8426 15.5732 69.5476 15.951C69.2559 16.3288 68.8549 16.6238 68.3445 16.8359C67.8374 17.0447 67.2524 17.1491 66.5895 17.1491C65.5786 17.1491 64.7732 16.9387 64.1733 16.5178C63.5767 16.0935 63.227 15.5168 63.1243 14.7876L65.2074 14.6783C65.2704 14.9865 65.4228 15.2218 65.6648 15.3842C65.9067 15.5433 66.2166 15.6229 66.5945 15.6229C66.9657 15.6229 67.264 15.5516 67.4893 15.4091C67.718 15.2633 67.834 15.076 67.8374 14.8473C67.834 14.6551 67.7528 14.4976 67.5938 14.375C67.4347 14.2491 67.1894 14.1529 66.858 14.0866L65.5355 13.8232C64.7898 13.674 64.2346 13.4155 63.87 13.0476C63.5088 12.6797 63.3281 12.2107 63.3281 11.6406C63.3281 11.1501 63.4607 10.7275 63.7259 10.3729C63.9943 10.0182 64.3705 9.74479 64.8544 9.55256C65.3416 9.36032 65.9117 9.2642 66.5646 9.2642C67.5291 9.2642 68.2881 9.46804 68.8416 9.87571C69.3984 10.2834 69.7232 10.8385 69.8161 11.5412ZM74.8038 17.1491C74.0183 17.1491 73.3422 16.9901 72.7754 16.6719C72.2119 16.3504 71.7778 15.8963 71.4728 15.3097C71.1679 14.7197 71.0154 14.022 71.0154 13.2166C71.0154 12.4311 71.1679 11.7417 71.4728 11.1484C71.7778 10.5552 72.207 10.0928 72.7605 9.76136C73.3173 9.42992 73.9702 9.2642 74.7193 9.2642C75.2231 9.2642 75.6921 9.34541 76.1262 9.50781C76.5637 9.6669 76.9449 9.9072 77.2697 10.2287C77.5978 10.5502 77.853 10.9545 78.0353 11.4418C78.2176 11.9257 78.3088 12.4924 78.3088 13.142V13.7237H71.8606V12.4112H76.3152C76.3152 12.1063 76.2489 11.8362 76.1163 11.6009C75.9837 11.3655 75.7998 11.1816 75.5645 11.049C75.3324 10.9131 75.0623 10.8452 74.7541 10.8452C74.4326 10.8452 74.1475 10.9197 73.899 11.0689C73.6537 11.2147 73.4615 11.4119 73.3223 11.6605C73.1831 11.9058 73.1118 12.1792 73.1085 12.4808V13.7287C73.1085 14.1065 73.1781 14.433 73.3173 14.7081C73.4598 14.9832 73.6603 15.1953 73.9189 15.3445C74.1774 15.4936 74.484 15.5682 74.8386 15.5682C75.0739 15.5682 75.2894 15.535 75.4849 15.4688C75.6805 15.4025 75.8478 15.303 75.987 15.1705C76.1262 15.0379 76.2323 14.8755 76.3052 14.6832L78.264 14.8125C78.1646 15.2831 77.9608 15.6941 77.6525 16.0455C77.3476 16.3935 76.9532 16.6652 76.4693 16.8608C75.9887 17.053 75.4335 17.1491 74.8038 17.1491ZM82.5048 17.1243C81.9248 17.1243 81.3994 16.9751 80.9288 16.6768C80.4615 16.3752 80.0903 15.9328 79.8152 15.3494C79.5434 14.7628 79.4075 14.0436 79.4075 13.1918C79.4075 12.3168 79.5484 11.5893 79.8301 11.0092C80.1118 10.4259 80.4863 9.99006 80.9537 9.7017C81.4243 9.41004 81.9397 9.2642 82.4998 9.2642C82.9274 9.2642 83.2837 9.33712 83.5687 9.48295C83.8571 9.62547 84.0891 9.80445 84.2647 10.0199C84.4437 10.232 84.5796 10.4408 84.6724 10.6463H84.737V6.81818H86.85V17H84.7619V15.777H84.6724C84.573 15.9891 84.4321 16.1996 84.2498 16.4084C84.0708 16.6139 83.8372 16.7846 83.5488 16.9205C83.2638 17.0563 82.9158 17.1243 82.5048 17.1243ZM83.176 15.4389C83.5173 15.4389 83.8057 15.3461 84.041 15.1605C84.2797 14.9716 84.4619 14.7081 84.5879 14.37C84.7172 14.032 84.7818 13.6359 84.7818 13.1818C84.7818 12.7277 84.7188 12.3333 84.5929 11.9986C84.4669 11.6638 84.2846 11.4053 84.046 11.223C83.8074 11.0407 83.5173 10.9496 83.176 10.9496C82.8279 10.9496 82.5346 11.044 82.296 11.233C82.0574 11.4219 81.8767 11.6837 81.7541 12.0185C81.6315 12.3532 81.5701 12.741 81.5701 13.1818C81.5701 13.6259 81.6315 14.0187 81.7541 14.3601C81.88 14.6982 82.0607 14.9633 82.296 15.1555C82.5346 15.3445 82.8279 15.4389 83.176 15.4389Z" fill="white"/>
</g>
<defs>
<filter id="filter0_d_176_44" x="0" y="0" width="128" height="31" filterUnits="userSpaceOnUse" color-interpolation-filters="sRGB">
<feFlood flood-opacity="0" result="BackgroundImageFix"/>
<feColorMatrix in="SourceAlpha" type="matrix" values="0 0 0 0 0 0 0 0 0 0 0 0 0 0 0 0 0 0 127 0" result="hardAlpha"/>
<feOffset dy="4"/>
<feGaussianBlur stdDeviation="2"/>
<feComposite in2="hardAlpha" operator="out"/>
<feColorMatrix type="matrix" values="0 0 0 0 0 0 0 0 0 0 0 0 0 0 0 0 0 0 0.25 0"/>
<feBlend mode="normal" in2="BackgroundImageFix" result="effect1_dropShadow_176_44"/>
<feBlend mode="normal" in="SourceGraphic" in2="effect1_dropShadow_176_44" result="shape"/>
</filter>
</defs>
</svg>
