<svg width="128" height="31" viewBox="0 0 128 31" fill="none" xmlns="http://www.w3.org/2000/svg">
<g filter="url(#filter0_d_38_22)">
<path d="M4 5C4 2.23858 6.23858 0 9 0H119C121.761 0 124 2.23858 124 5V18C124 20.7614 121.761 23 119 23H9C6.23858 23 4 20.7614 4 18V5Z" fill="#4B93FE"/>
<path d="M51.9517 8.36364V9.95455H47.2386V8.36364H51.9517ZM48.3175 16V7.81179C48.3175 7.25829 48.4252 6.79924 48.6406 6.43466C48.8594 6.07008 49.1577 5.79664 49.5355 5.61435C49.9134 5.43205 50.3426 5.34091 50.8232 5.34091C51.148 5.34091 51.4446 5.36577 51.7131 5.41548C51.9848 5.4652 52.187 5.50994 52.3196 5.54972L51.9418 7.14062C51.8589 7.11411 51.7562 7.08925 51.6335 7.06605C51.5142 7.04285 51.3916 7.03125 51.2656 7.03125C50.9541 7.03125 50.737 7.10417 50.6143 7.25C50.4917 7.39252 50.4304 7.59304 50.4304 7.85156V16H48.3175ZM53.2456 16V8.36364H55.3635V16H53.2456ZM54.3095 7.37926C53.9946 7.37926 53.7245 7.27486 53.4991 7.06605C53.277 6.85393 53.166 6.60038 53.166 6.3054C53.166 6.01373 53.277 5.76349 53.4991 5.55469C53.7245 5.34257 53.9946 5.23651 54.3095 5.23651C54.6243 5.23651 54.8928 5.34257 55.1149 5.55469C55.3403 5.76349 55.4529 6.01373 55.4529 6.3054C55.4529 6.60038 55.3403 6.85393 55.1149 7.06605C54.8928 7.27486 54.6243 7.37926 54.3095 7.37926ZM58.8299 8.36364L60.2319 11.0334L61.6687 8.36364H63.8413L61.6289 12.1818L63.9009 16H61.7383L60.2319 13.3601L58.7504 16H56.5629L58.8299 12.1818L56.6424 8.36364H58.8299ZM68.3058 16.1491C67.5202 16.1491 66.8441 15.9901 66.2773 15.6719C65.7139 15.3504 65.2797 14.8963 64.9748 14.3097C64.6699 13.7197 64.5174 13.022 64.5174 12.2166C64.5174 11.4311 64.6699 10.7417 64.9748 10.1484C65.2797 9.55516 65.7089 9.0928 66.2624 8.76136C66.8192 8.42992 67.4722 8.2642 68.2212 8.2642C68.725 8.2642 69.194 8.34541 69.6282 8.50781C70.0657 8.6669 70.4469 8.9072 70.7717 9.22869C71.0998 9.55019 71.355 9.95455 71.5373 10.4418C71.7196 10.9257 71.8107 11.4924 71.8107 12.142V12.7237H65.3626V11.4112H69.8171C69.8171 11.1063 69.7508 10.8362 69.6183 10.6009C69.4857 10.3655 69.3017 10.1816 69.0664 10.049C68.8344 9.91312 68.5643 9.84517 68.256 9.84517C67.9345 9.84517 67.6495 9.91974 67.4009 10.0689C67.1557 10.2147 66.9634 10.4119 66.8242 10.6605C66.685 10.9058 66.6138 11.1792 66.6104 11.4808V12.7287C66.6104 13.1065 66.68 13.433 66.8192 13.7081C66.9618 13.9832 67.1623 14.1953 67.4208 14.3445C67.6793 14.4936 67.9859 14.5682 68.3406 14.5682C68.5759 14.5682 68.7913 14.535 68.9869 14.4688C69.1824 14.4025 69.3498 14.303 69.489 14.1705C69.6282 14.0379 69.7343 13.8755 69.8072 13.6832L71.766 13.8125C71.6665 14.2831 71.4627 14.6941 71.1545 15.0455C70.8496 15.3935 70.4551 15.6652 69.9712 15.8608C69.4906 16.053 68.9355 16.1491 68.3058 16.1491ZM76.0067 16.1243C75.4267 16.1243 74.9014 15.9751 74.4308 15.6768C73.9634 15.3752 73.5922 14.9328 73.3171 14.3494C73.0453 13.7628 72.9094 13.0436 72.9094 12.1918C72.9094 11.3168 73.0503 10.5893 73.332 10.0092C73.6138 9.4259 73.9883 8.99006 74.4556 8.7017C74.9263 8.41004 75.4416 8.2642 76.0018 8.2642C76.4293 8.2642 76.7856 8.33712 77.0707 8.48295C77.359 8.62547 77.591 8.80445 77.7667 9.01989C77.9457 9.23201 78.0816 9.44081 78.1744 9.64631H78.239V5.81818H80.3519V16H78.2638V14.777H78.1744C78.0749 14.9891 77.9341 15.1996 77.7518 15.4084C77.5728 15.6139 77.3391 15.7846 77.0508 15.9205C76.7657 16.0563 76.4177 16.1243 76.0067 16.1243ZM76.6779 14.4389C77.0193 14.4389 77.3076 14.3461 77.543 14.1605C77.7816 13.9716 77.9639 13.7081 78.0898 13.37C78.2191 13.032 78.2837 12.6359 78.2837 12.1818C78.2837 11.7277 78.2208 11.3333 78.0948 10.9986C77.9689 10.6638 77.7866 10.4053 77.5479 10.223C77.3093 10.0407 77.0193 9.94957 76.6779 9.94957C76.3299 9.94957 76.0366 10.044 75.7979 10.233C75.5593 10.4219 75.3787 10.6837 75.256 11.0185C75.1334 11.3532 75.0721 11.741 75.0721 12.1818C75.0721 12.6259 75.1334 13.0187 75.256 13.3601C75.382 13.6982 75.5626 13.9633 75.7979 14.1555C76.0366 14.3445 76.3299 14.4389 76.6779 14.4389Z" fill="white"/>
</g>
<defs>
<filter id="filter0_d_38_22" x="0" y="0" width="128" height="31" filterUnits="userSpaceOnUse" color-interpolation-filters="sRGB">
<feFlood flood-opacity="0" result="BackgroundImageFix"/>
<feColorMatrix in="SourceAlpha" type="matrix" values="0 0 0 0 0 0 0 0 0 0 0 0 0 0 0 0 0 0 127 0" result="hardAlpha"/>
<feOffset dy="4"/>
<feGaussianBlur stdDeviation="2"/>
<feComposite in2="hardAlpha" operator="out"/>
<feColorMatrix type="matrix" values="0 0 0 0 0 0 0 0 0 0 0 0 0 0 0 0 0 0 0.25 0"/>
<feBlend mode="normal" in2="BackgroundImageFix" result="effect1_dropShadow_38_22"/>
<feBlend mode="normal" in="SourceGraphic" in2="effect1_dropShadow_38_22" result="shape"/>
</filter>
</defs>
</svg>
