<svg width="120" height="23" viewBox="0 0 120 23" fill="none" xmlns="http://www.w3.org/2000/svg">
<path d="M0 5C0 2.23858 2.23858 0 5 0H115C117.761 0 120 2.23858 120 5V18C120 20.7614 117.761 23 115 23H5C2.23858 23 0 20.7614 0 18V5Z" fill="#706E6C"/>
<path d="M48.9631 11.5852V16H46.8452V8.36364H48.8636V9.71094H48.9531C49.1222 9.26681 49.4055 8.91548 49.8033 8.65696C50.201 8.39512 50.6832 8.2642 51.25 8.2642C51.7803 8.2642 52.2427 8.38021 52.6371 8.61222C53.0315 8.84422 53.3381 9.17566 53.5568 9.60653C53.7756 10.0341 53.8849 10.5445 53.8849 11.1378V16H51.767V11.5156C51.7704 11.0483 51.651 10.6837 51.4091 10.4219C51.1671 10.1567 50.834 10.0241 50.4098 10.0241C50.1248 10.0241 49.8729 10.0855 49.6541 10.2081C49.4387 10.3307 49.2696 10.5097 49.147 10.745C49.0277 10.977 48.9664 11.2571 48.9631 11.5852ZM59.0343 16.1491C58.2488 16.1491 57.5726 15.9901 57.0059 15.6719C56.4424 15.3504 56.0082 14.8963 55.7033 14.3097C55.3984 13.7197 55.2459 13.022 55.2459 12.2166C55.2459 11.4311 55.3984 10.7417 55.7033 10.1484C56.0082 9.55516 56.4374 9.0928 56.9909 8.76136C57.5478 8.42992 58.2007 8.2642 58.9498 8.2642C59.4535 8.2642 59.9225 8.34541 60.3567 8.50781C60.7942 8.6669 61.1754 8.9072 61.5002 9.22869C61.8283 9.55019 62.0835 9.95455 62.2658 10.4418C62.4481 10.9257 62.5392 11.4924 62.5392 12.142V12.7237H56.0911V11.4112H60.5456C60.5456 11.1063 60.4793 10.8362 60.3468 10.6009C60.2142 10.3655 60.0302 10.1816 59.7949 10.049C59.5629 9.91312 59.2928 9.84517 58.9846 9.84517C58.6631 9.84517 58.378 9.91974 58.1294 10.0689C57.8842 10.2147 57.6919 10.4119 57.5527 10.6605C57.4135 10.9058 57.3423 11.1792 57.339 11.4808V12.7287C57.339 13.1065 57.4086 13.433 57.5478 13.7081C57.6903 13.9832 57.8908 14.1953 58.1493 14.3445C58.4078 14.4936 58.7144 14.5682 59.0691 14.5682C59.3044 14.5682 59.5198 14.535 59.7154 14.4688C59.9109 14.4025 60.0783 14.303 60.2175 14.1705C60.3567 14.0379 60.4628 13.8755 60.5357 13.6832L62.4945 13.8125C62.3951 14.2831 62.1912 14.6941 61.883 15.0455C61.5781 15.3935 61.1837 15.6652 60.6998 15.8608C60.2192 16.053 59.664 16.1491 59.0343 16.1491ZM65.373 16L63.2949 8.36364H65.4377L66.6209 13.4943H66.6905L67.9235 8.36364H70.0265L71.2793 13.4645H71.3439L72.5073 8.36364H74.6451L72.5719 16H70.3297L69.0172 11.1974H68.9228L67.6103 16H65.373Z" fill="white"/>
</svg>
