<svg width="128" height="31" viewBox="0 0 128 31" fill="none" xmlns="http://www.w3.org/2000/svg">
<g filter="url(#filter0_d_176_43)">
<path d="M4 5C4 2.23858 6.23858 0 9 0H119C121.761 0 124 2.23858 124 5V18C124 20.7614 121.761 23 119 23H9C6.23858 23 4 20.7614 4 18V5Z" fill="#80FD34"/>
<path d="M33.8452 17V9.36364H35.8984V10.696H35.978C36.1172 10.2221 36.3509 9.86411 36.679 9.62216C37.0071 9.37689 37.3849 9.25426 37.8125 9.25426C37.9186 9.25426 38.0329 9.26089 38.1555 9.27415C38.2782 9.28741 38.3859 9.30563 38.4787 9.32883V11.2081C38.3793 11.1783 38.2417 11.1518 38.0661 11.1286C37.8904 11.1054 37.7296 11.0938 37.5838 11.0938C37.2723 11.0938 36.9938 11.1617 36.7486 11.2976C36.5066 11.4302 36.3144 11.6158 36.1719 11.8544C36.0327 12.093 35.9631 12.3681 35.9631 12.6797V17H33.8452ZM42.6983 17.1491C41.9128 17.1491 41.2367 16.9901 40.6699 16.6719C40.1065 16.3504 39.6723 15.8963 39.3674 15.3097C39.0624 14.7197 38.91 14.022 38.91 13.2166C38.91 12.4311 39.0624 11.7417 39.3674 11.1484C39.6723 10.5552 40.1015 10.0928 40.655 9.76136C41.2118 9.42992 41.8648 9.2642 42.6138 9.2642C43.1176 9.2642 43.5866 9.34541 44.0208 9.50781C44.4583 9.6669 44.8394 9.9072 45.1642 10.2287C45.4924 10.5502 45.7476 10.9545 45.9299 11.4418C46.1122 11.9257 46.2033 12.4924 46.2033 13.142V13.7237H39.7551V12.4112H44.2097C44.2097 12.1063 44.1434 11.8362 44.0108 11.6009C43.8783 11.3655 43.6943 11.1816 43.459 11.049C43.227 10.9131 42.9569 10.8452 42.6486 10.8452C42.3271 10.8452 42.0421 10.9197 41.7935 11.0689C41.5482 11.2147 41.356 11.4119 41.2168 11.6605C41.0776 11.9058 41.0063 12.1792 41.003 12.4808V13.7287C41.003 14.1065 41.0726 14.433 41.2118 14.7081C41.3543 14.9832 41.5549 15.1953 41.8134 15.3445C42.0719 15.4936 42.3785 15.5682 42.7331 15.5682C42.9685 15.5682 43.1839 15.535 43.3794 15.4688C43.575 15.4025 43.7424 15.303 43.8816 15.1705C44.0208 15.0379 44.1268 14.8755 44.1998 14.6832L46.1586 14.8125C46.0591 15.2831 45.8553 15.6941 45.5471 16.0455C45.2421 16.3935 44.8477 16.6652 44.3638 16.8608C43.8832 17.053 43.3281 17.1491 42.6983 17.1491ZM53.9391 11.5412L52.0002 11.6605C51.967 11.4948 51.8958 11.3456 51.7864 11.2131C51.677 11.0772 51.5328 10.9695 51.3539 10.8899C51.1782 10.8071 50.9677 10.7656 50.7225 10.7656C50.3944 10.7656 50.1176 10.8352 49.8922 10.9744C49.6668 11.1103 49.5542 11.2926 49.5542 11.5213C49.5542 11.7036 49.6271 11.8577 49.7729 11.9837C49.9187 12.1096 50.169 12.2107 50.5236 12.2869L51.9057 12.5653C52.6481 12.7178 53.2016 12.9631 53.5662 13.3011C53.9308 13.6392 54.1131 14.0833 54.1131 14.6335C54.1131 15.134 53.9656 15.5732 53.6706 15.951C53.379 16.3288 52.9779 16.6238 52.4675 16.8359C51.9604 17.0447 51.3754 17.1491 50.7125 17.1491C49.7016 17.1491 48.8962 16.9387 48.2963 16.5178C47.6998 16.0935 47.3501 15.5168 47.2473 14.7876L49.3304 14.6783C49.3934 14.9865 49.5459 15.2218 49.7878 15.3842C50.0298 15.5433 50.3397 15.6229 50.7175 15.6229C51.0887 15.6229 51.387 15.5516 51.6124 15.4091C51.8411 15.2633 51.9571 15.076 51.9604 14.8473C51.9571 14.6551 51.8759 14.4976 51.7168 14.375C51.5577 14.2491 51.3124 14.1529 50.981 14.0866L49.6586 13.8232C48.9128 13.674 48.3577 13.4155 47.9931 13.0476C47.6318 12.6797 47.4512 12.2107 47.4512 11.6406C47.4512 11.1501 47.5837 10.7275 47.8489 10.3729C48.1174 10.0182 48.4935 9.74479 48.9775 9.55256C49.4647 9.36032 50.0347 9.2642 50.6877 9.2642C51.6522 9.2642 52.4112 9.46804 52.9647 9.87571C53.5215 10.2834 53.8463 10.8385 53.9391 11.5412ZM58.897 17.1491C58.1248 17.1491 57.4569 16.9851 56.8935 16.657C56.3333 16.3255 55.9008 15.8648 55.5959 15.2749C55.291 14.6816 55.1385 13.9938 55.1385 13.2116C55.1385 12.4228 55.291 11.7334 55.5959 11.1435C55.9008 10.5502 56.3333 10.0895 56.8935 9.76136C57.4569 9.42992 58.1248 9.2642 58.897 9.2642C59.6693 9.2642 60.3355 9.42992 60.8956 9.76136C61.459 10.0895 61.8932 10.5502 62.1982 11.1435C62.5031 11.7334 62.6555 12.4228 62.6555 13.2116C62.6555 13.9938 62.5031 14.6816 62.1982 15.2749C61.8932 15.8648 61.459 16.3255 60.8956 16.657C60.3355 16.9851 59.6693 17.1491 58.897 17.1491ZM58.907 15.5085C59.2583 15.5085 59.5516 15.4091 59.7869 15.2102C60.0223 15.008 60.1996 14.733 60.3189 14.3849C60.4415 14.0369 60.5028 13.6409 60.5028 13.1967C60.5028 12.7526 60.4415 12.3565 60.3189 12.0085C60.1996 11.6605 60.0223 11.3854 59.7869 11.1832C59.5516 10.9811 59.2583 10.88 58.907 10.88C58.5523 10.88 58.254 10.9811 58.0121 11.1832C57.7734 11.3854 57.5928 11.6605 57.4702 12.0085C57.3509 12.3565 57.2912 12.7526 57.2912 13.1967C57.2912 13.6409 57.3509 14.0369 57.4702 14.3849C57.5928 14.733 57.7734 15.008 58.0121 15.2102C58.254 15.4091 58.5523 15.5085 58.907 15.5085ZM66.1506 6.81818V17H64.0327V6.81818H66.1506ZM74.9664 9.36364L72.2967 17H69.9103L67.2406 9.36364H69.4778L71.0637 14.8274H71.1433L72.7243 9.36364H74.9664ZM79.2843 17.1491C78.4988 17.1491 77.8226 16.9901 77.2559 16.6719C76.6924 16.3504 76.2582 15.8963 75.9533 15.3097C75.6484 14.7197 75.4959 14.022 75.4959 13.2166C75.4959 12.4311 75.6484 11.7417 75.9533 11.1484C76.2582 10.5552 76.6874 10.0928 77.2409 9.76136C77.7978 9.42992 78.4507 9.2642 79.1998 9.2642C79.7035 9.2642 80.1725 9.34541 80.6067 9.50781C81.0442 9.6669 81.4254 9.9072 81.7502 10.2287C82.0783 10.5502 82.3335 10.9545 82.5158 11.4418C82.6981 11.9257 82.7892 12.4924 82.7892 13.142V13.7237H76.3411V12.4112H80.7956C80.7956 12.1063 80.7293 11.8362 80.5968 11.6009C80.4642 11.3655 80.2802 11.1816 80.0449 11.049C79.8129 10.9131 79.5428 10.8452 79.2346 10.8452C78.9131 10.8452 78.628 10.9197 78.3794 11.0689C78.1342 11.2147 77.9419 11.4119 77.8027 11.6605C77.6635 11.9058 77.5923 12.1792 77.589 12.4808V13.7287C77.589 14.1065 77.6586 14.433 77.7978 14.7081C77.9403 14.9832 78.1408 15.1953 78.3993 15.3445C78.6578 15.4936 78.9644 15.5682 79.3191 15.5682C79.5544 15.5682 79.7698 15.535 79.9654 15.4688C80.1609 15.4025 80.3283 15.303 80.4675 15.1705C80.6067 15.0379 80.7128 14.8755 80.7857 14.6832L82.7445 14.8125C82.6451 15.2831 82.4412 15.6941 82.133 16.0455C81.8281 16.3935 81.4337 16.6652 80.9498 16.8608C80.4692 17.053 79.914 17.1491 79.2843 17.1491ZM86.9853 17.1243C86.4052 17.1243 85.8799 16.9751 85.4093 16.6768C84.9419 16.3752 84.5707 15.9328 84.2956 15.3494C84.0239 14.7628 83.888 14.0436 83.888 13.1918C83.888 12.3168 84.0288 11.5893 84.3105 11.0092C84.5923 10.4259 84.9668 9.99006 85.4341 9.7017C85.9048 9.41004 86.4202 9.2642 86.9803 9.2642C87.4078 9.2642 87.7641 9.33712 88.0492 9.48295C88.3375 9.62547 88.5695 9.80445 88.7452 10.0199C88.9242 10.232 89.0601 10.4408 89.1529 10.6463H89.2175V6.81818H91.3304V17H89.2424V15.777H89.1529C89.0534 15.9891 88.9126 16.1996 88.7303 16.4084C88.5513 16.6139 88.3176 16.7846 88.0293 16.9205C87.7443 17.0563 87.3962 17.1243 86.9853 17.1243ZM87.6564 15.4389C87.9978 15.4389 88.2862 15.3461 88.5215 15.1605C88.7601 14.9716 88.9424 14.7081 89.0684 14.37C89.1976 14.032 89.2623 13.6359 89.2623 13.1818C89.2623 12.7277 89.1993 12.3333 89.0733 11.9986C88.9474 11.6638 88.7651 11.4053 88.5265 11.223C88.2878 11.0407 87.9978 10.9496 87.6564 10.9496C87.3084 10.9496 87.0151 11.044 86.7765 11.233C86.5378 11.4219 86.3572 11.6837 86.2346 12.0185C86.1119 12.3532 86.0506 12.741 86.0506 13.1818C86.0506 13.6259 86.1119 14.0187 86.2346 14.3601C86.3605 14.6982 86.5411 14.9633 86.7765 15.1555C87.0151 15.3445 87.3084 15.4389 87.6564 15.4389Z" fill="white"/>
</g>
<defs>
<filter id="filter0_d_176_43" x="0" y="0" width="128" height="31" filterUnits="userSpaceOnUse" color-interpolation-filters="sRGB">
<feFlood flood-opacity="0" result="BackgroundImageFix"/>
<feColorMatrix in="SourceAlpha" type="matrix" values="0 0 0 0 0 0 0 0 0 0 0 0 0 0 0 0 0 0 127 0" result="hardAlpha"/>
<feOffset dy="4"/>
<feGaussianBlur stdDeviation="2"/>
<feComposite in2="hardAlpha" operator="out"/>
<feColorMatrix type="matrix" values="0 0 0 0 0 0 0 0 0 0 0 0 0 0 0 0 0 0 0.25 0"/>
<feBlend mode="normal" in2="BackgroundImageFix" result="effect1_dropShadow_176_43"/>
<feBlend mode="normal" in="SourceGraphic" in2="effect1_dropShadow_176_43" result="shape"/>
</filter>
</defs>
</svg>
